<svg xmlns="http://www.w3.org/2000/svg" id="canvas" viewBox="323.000 289.122 1655.848 304.613">
<style>
  path {
    stroke: #374151;
    fill: #374151;
  }
  @media (prefers-color-scheme: dark) {
    path {
      stroke: #e5e7eb;
      fill: #e5e7eb;
    }
  }
</style>
<path d="M 343.70,351.41 C 343.11 353.41, 343.71 355.65, 343.70 361.37 C 343.69 367.09, 343.80 370.88, 343.65 380.01 C 343.50 389.14, 343.48 395.29, 342.94 407.02 C 342.39 418.76, 341.92 425.58, 340.94 438.69 C 339.96 451.80, 339.28 459.17, 338.05 472.58 C 336.82 485.98, 336.06 493.11, 334.77 505.71 C 333.49 518.30, 332.80 524.69, 331.64 535.55 C 330.48 546.41, 329.91 551.65, 328.98 560.01 C 328.05 568.38, 327.58 572.03, 326.98 577.38 C 326.39 582.74, 326.01 584.22, 326.00 586.79 C 325.99 589.35, 326.51 589.51, 326.94 590.20 C 327.38 590.90, 327.67 590.90, 328.18 590.27 C 328.69 589.64, 329.12 589.58, 329.50 587.05 C 329.88 584.53, 329.73 583.02, 330.08 577.66 C 330.43 572.29, 330.58 568.62, 331.27 560.23 C 331.96 551.85, 332.48 546.61, 333.52 535.74 C 334.57 524.87, 335.24 518.48, 336.48 505.88 C 337.72 493.28, 338.48 486.14, 339.73 472.73 C 340.99 459.32, 341.68 451.95, 342.76 438.83 C 343.83 425.71, 344.38 418.89, 345.10 407.14 C 345.82 395.39, 345.99 389.24, 346.36 380.09 C 346.72 370.94, 346.86 367.13, 346.91 361.39 C 346.96 355.64, 347.26 353.36, 346.62 351.37 C 345.97 349.37, 344.28 349.41, 343.70 351.41"/><path d="M 335.35,316.82 C 336.85 316.59, 338.07 315.35, 340.66 313.41 C 343.24 311.47, 344.50 309.68, 348.30 307.13 C 352.09 304.58, 354.47 302.78, 359.64 300.68 C 364.82 298.57, 368.03 297.64, 374.18 296.62 C 380.32 295.61, 383.84 295.34, 390.35 295.60 C 396.86 295.86, 400.38 296.28, 406.72 297.91 C 413.05 299.55, 416.42 300.82, 422.04 303.78 C 427.66 306.74, 430.44 308.67, 434.81 312.73 C 439.18 316.80, 441.11 319.20, 443.91 324.11 C 446.70 329.03, 447.77 331.84, 448.79 337.31 C 449.81 342.77, 449.98 345.69, 448.99 351.45 C 448.00 357.21, 446.97 360.26, 443.82 366.11 C 440.68 371.96, 438.32 375.11, 433.27 380.70 C 428.22 386.29, 424.94 389.13, 418.56 394.05 C 412.18 398.96, 408.26 401.31, 401.38 405.27 C 394.50 409.23, 390.55 410.95, 384.17 413.85 C 377.79 416.74, 374.60 417.83, 369.49 419.73 C 364.37 421.64, 362.03 421.84, 358.61 423.36 C 355.19 424.87, 353.86 425.42, 352.38 427.29 C 350.91 429.16, 350.72 430.46, 351.23 432.70 C 351.73 434.94, 352.50 435.99, 354.92 438.48 C 357.34 440.97, 359.37 441.81, 363.31 445.14 C 367.25 448.48, 369.73 450.43, 374.60 455.16 C 379.47 459.89, 382.27 462.73, 387.66 468.78 C 393.05 474.83, 395.98 478.41, 401.54 485.40 C 407.10 492.39, 410.05 496.37, 415.48 503.72 C 420.90 511.06, 423.66 515.01, 428.67 522.13 C 433.69 529.25, 436.10 532.90, 440.55 539.31 C 445.00 545.71, 447.07 548.86, 450.91 554.17 C 454.76 559.47, 456.48 561.86, 459.77 565.82 C 463.07 569.78, 464.75 571.61, 467.40 573.95 C 470.06 576.30, 471.21 576.75, 473.04 577.54 C 474.88 578.34, 475.73 578.16, 476.59 577.93 C 477.44 577.69, 477.59 577.13, 477.32 576.36 C 477.05 575.60, 476.57 575.35, 475.24 574.11 C 473.91 572.88, 473.21 572.34, 470.67 570.19 C 468.13 568.03, 466.02 566.89, 462.55 563.33 C 459.08 559.76, 457.30 557.46, 453.34 552.35 C 449.37 547.24, 447.25 544.11, 442.72 537.77 C 438.19 531.44, 435.75 527.80, 430.69 520.70 C 425.64 513.59, 422.88 509.64, 417.46 502.26 C 412.03 494.88, 409.09 490.87, 403.58 483.79 C 398.07 476.71, 395.16 473.09, 389.89 466.85 C 384.61 460.62, 381.85 457.67, 377.21 452.62 C 372.56 447.57, 370.24 445.32, 366.66 441.58 C 363.09 437.84, 361.67 436.03, 359.33 433.92 C 356.99 431.81, 355.79 431.80, 354.96 431.04 C 354.13 430.28, 354.07 430.80, 355.18 430.12 C 356.29 429.43, 357.38 429.03, 360.51 427.62 C 363.64 426.20, 365.84 425.24, 370.83 423.04 C 375.82 420.83, 379.06 419.65, 385.45 416.58 C 391.84 413.51, 395.82 411.75, 402.78 407.69 C 409.74 403.62, 413.73 401.26, 420.26 396.26 C 426.79 391.25, 430.17 388.40, 435.43 382.67 C 440.70 376.94, 443.21 373.73, 446.58 367.61 C 449.95 361.48, 451.16 358.22, 452.28 352.03 C 453.40 345.85, 453.26 342.60, 452.18 336.68 C 451.09 330.76, 449.89 327.70, 446.87 322.42 C 443.85 317.15, 441.73 314.60, 437.07 310.30 C 432.40 306.00, 429.46 304.01, 423.55 300.91 C 417.64 297.81, 414.14 296.52, 407.53 294.79 C 400.92 293.06, 397.28 292.63, 390.51 292.28 C 383.73 291.93, 380.11 292.15, 373.64 293.04 C 367.16 293.92, 363.75 294.75, 358.15 296.71 C 352.54 298.67, 349.86 300.37, 345.62 302.83 C 341.38 305.29, 339.43 306.65, 336.93 309.01 C 334.44 311.36, 333.46 313.04, 333.15 314.60 C 332.83 316.16, 333.85 317.06, 335.35 316.82"/><path d="M 547.20,515.86 C 548.22 516.95, 549.68 518.06, 552.67 518.30 C 555.65 518.54, 557.73 517.99, 562.12 517.04 C 566.51 516.08, 569.40 515.47, 574.62 513.52 C 579.84 511.57, 582.78 510.15, 588.21 507.28 C 593.64 504.41, 596.59 502.65, 601.76 499.17 C 606.94 495.69, 609.65 493.76, 614.10 489.89 C 618.54 486.03, 620.72 483.93, 624.00 479.84 C 627.28 475.75, 628.73 473.57, 630.49 469.43 C 632.25 465.28, 632.92 463.09, 632.79 459.12 C 632.66 455.15, 632.10 452.82, 629.86 449.58 C 627.62 446.34, 625.72 444.75, 621.60 442.92 C 617.48 441.08, 614.84 440.62, 609.27 440.41 C 603.69 440.20, 600.37 440.39, 593.73 441.85 C 587.09 443.32, 583.22 444.49, 576.07 447.72 C 568.91 450.95, 564.91 453.15, 557.94 458.00 C 550.97 462.86, 547.23 465.91, 541.20 472.00 C 535.17 478.09, 532.19 481.66, 527.77 488.46 C 523.36 495.26, 521.34 498.98, 519.14 506.00 C 516.95 513.03, 516.36 516.82, 516.80 523.59 C 517.24 530.36, 518.16 533.90, 521.36 539.85 C 524.56 545.80, 527.05 548.72, 532.80 553.35 C 538.56 557.98, 542.28 560.02, 550.15 563.00 C 558.01 565.97, 562.67 567.05, 572.14 568.22 C 581.61 569.40, 587.97 569.17, 597.49 568.87 C 607.01 568.57, 612.23 567.77, 619.74 566.72 C 627.25 565.66, 632.08 564.72, 635.04 563.61 C 638.00 562.49, 637.67 561.01, 634.54 561.14 C 631.41 561.27, 626.82 563.22, 619.39 564.27 C 611.97 565.31, 606.80 566.05, 597.41 566.35 C 588.02 566.65, 581.71 566.92, 572.45 565.76 C 563.18 564.60, 558.66 563.47, 551.09 560.54 C 543.52 557.61, 540.03 555.55, 534.60 551.13 C 529.18 546.71, 526.94 544.00, 523.96 538.45 C 520.98 532.90, 520.13 529.72, 519.70 523.39 C 519.26 517.07, 519.73 513.52, 521.79 506.82 C 523.85 500.12, 525.74 496.49, 530.00 489.90 C 534.25 483.30, 537.16 479.78, 543.06 473.85 C 548.96 467.92, 552.65 464.93, 559.49 460.25 C 566.34 455.58, 570.30 453.47, 577.28 450.48 C 584.27 447.49, 588.08 446.48, 594.43 445.30 C 600.77 444.12, 603.99 444.18, 609.02 444.59 C 614.05 445.00, 616.25 445.75, 619.57 447.33 C 622.88 448.92, 623.94 450.13, 625.59 452.52 C 627.24 454.92, 627.66 456.27, 627.80 459.32 C 627.95 462.36, 627.72 464.13, 626.33 467.74 C 624.94 471.35, 623.78 473.50, 620.84 477.37 C 617.90 481.25, 615.86 483.35, 611.64 487.10 C 607.42 490.84, 604.77 492.78, 599.72 496.11 C 594.68 499.45, 591.74 501.17, 586.43 503.78 C 581.11 506.38, 578.19 507.60, 573.14 509.15 C 568.08 510.69, 565.26 510.97, 561.16 511.49 C 557.06 512.01, 555.34 511.48, 552.63 511.75 C 549.92 512.02, 548.68 512.01, 547.59 512.83 C 546.51 513.65, 546.19 514.76, 547.20 515.86"/><path d="M 792.47,453.61 C 791.73 452.45, 790.63 451.40, 788.08 450.78 C 785.53 450.17, 783.75 450.16, 779.73 450.53 C 775.72 450.89, 773.13 451.14, 768.02 452.61 C 762.90 454.09, 760.03 455.07, 754.14 457.91 C 748.24 460.74, 744.86 462.54, 738.53 466.78 C 732.20 471.01, 728.65 473.59, 722.47 479.10 C 716.29 484.61, 712.90 487.89, 707.64 494.32 C 702.37 500.76, 699.79 504.47, 696.15 511.26 C 692.52 518.05, 690.92 521.68, 689.47 528.28 C 688.01 534.88, 687.68 538.36, 688.87 544.27 C 690.06 550.18, 691.43 553.22, 695.42 557.84 C 699.41 562.45, 702.33 564.43, 708.82 567.34 C 715.32 570.25, 719.44 571.29, 727.88 572.38 C 736.32 573.46, 741.31 573.44, 751.02 572.77 C 760.73 572.10, 767.02 570.82, 776.45 569.03 C 785.88 567.24, 790.90 565.78, 798.16 563.81 C 805.42 561.84, 809.97 560.58, 812.73 559.18 C 815.49 557.77, 815.00 556.33, 811.96 556.79 C 808.92 557.24, 804.71 559.49, 797.52 561.44 C 790.32 563.40, 785.32 564.80, 775.98 566.57 C 766.65 568.34, 760.40 569.66, 750.85 570.28 C 741.30 570.91, 736.40 570.84, 728.24 569.70 C 720.08 568.57, 716.15 567.39, 710.07 564.60 C 703.99 561.81, 701.45 559.94, 697.83 555.75 C 694.22 551.56, 693.06 549.01, 691.97 543.64 C 690.88 538.27, 691.04 535.12, 692.37 528.91 C 693.70 522.69, 695.14 519.14, 698.61 512.57 C 702.09 506.00, 704.60 502.32, 709.74 496.05 C 714.89 489.78, 718.24 486.55, 724.34 481.22 C 730.43 475.88, 733.97 473.37, 740.23 469.38 C 746.50 465.40, 749.88 463.71, 755.66 461.27 C 761.43 458.83, 764.24 458.12, 769.11 457.20 C 773.98 456.28, 776.38 456.67, 780.01 456.69 C 783.65 456.71, 784.94 457.32, 787.29 457.30 C 789.64 457.27, 790.73 457.30, 791.77 456.57 C 792.80 455.83, 793.20 454.77, 792.47 453.61"/><path d="M 935.89,471.36 C 935.53 470.14, 934.79 469.16, 932.81 468.04 C 930.83 466.92, 929.43 466.16, 925.99 465.76 C 922.56 465.35, 920.23 465.34, 915.65 466.02 C 911.07 466.70, 908.47 467.25, 903.10 469.17 C 897.72 471.09, 894.61 472.31, 888.76 475.62 C 882.91 478.93, 879.57 481.02, 873.85 485.70 C 868.12 490.38, 864.98 493.30, 860.14 499.03 C 855.29 504.77, 852.88 508.13, 849.64 514.38 C 846.40 520.63, 845.01 524.12, 843.93 530.28 C 842.86 536.44, 842.84 539.82, 844.26 545.20 C 845.68 550.57, 847.23 553.34, 851.05 557.16 C 854.87 560.99, 857.63 562.58, 863.36 564.30 C 869.10 566.02, 872.75 566.31, 879.73 565.75 C 886.72 565.19, 890.81 564.18, 898.29 561.51 C 905.78 558.83, 909.89 556.83, 917.15 552.39 C 924.41 547.96, 928.27 545.07, 934.60 539.33 C 940.92 533.59, 944.04 530.13, 948.78 523.69 C 953.52 517.25, 955.55 513.65, 958.29 507.15 C 961.03 500.65, 961.84 497.15, 962.46 491.19 C 963.08 485.23, 962.88 482.27, 961.40 477.34 C 959.92 472.41, 958.40 470.04, 955.05 466.55 C 951.70 463.06, 949.27 461.66, 944.64 459.90 C 940.02 458.13, 937.12 457.86, 931.91 457.74 C 926.70 457.61, 923.57 458.22, 918.60 459.27 C 913.62 460.31, 910.77 461.35, 907.03 462.94 C 903.29 464.53, 901.10 465.85, 899.90 467.21 C 898.71 468.57, 899.30 469.72, 901.05 469.74 C 902.80 469.77, 904.95 468.52, 908.66 467.34 C 912.37 466.16, 914.95 464.87, 919.58 463.83 C 924.22 462.79, 927.13 462.12, 931.85 462.14 C 936.56 462.15, 939.09 462.47, 943.15 463.93 C 947.21 465.38, 949.19 466.52, 952.14 469.42 C 955.08 472.33, 956.44 474.16, 957.86 478.45 C 959.27 482.75, 959.65 485.37, 959.20 490.89 C 958.74 496.40, 958.11 499.79, 955.59 506.03 C 953.08 512.28, 951.15 515.83, 946.60 522.10 C 942.05 528.37, 939.00 531.79, 932.83 537.38 C 926.66 542.98, 922.85 545.81, 915.75 550.08 C 908.65 554.35, 904.58 556.25, 897.32 558.74 C 890.07 561.23, 886.08 562.08, 879.49 562.52 C 872.91 562.96, 869.56 562.52, 864.38 560.93 C 859.21 559.35, 856.96 557.92, 853.61 554.59 C 850.27 551.27, 848.94 549.04, 847.65 544.29 C 846.36 539.53, 846.22 536.53, 847.16 530.83 C 848.11 525.13, 849.32 521.76, 852.38 515.80 C 855.44 509.83, 857.77 506.53, 862.46 501.00 C 867.16 495.48, 870.25 492.64, 875.85 488.19 C 881.46 483.74, 884.76 481.74, 890.47 478.75 C 896.18 475.77, 899.27 474.70, 904.40 473.25 C 909.53 471.80, 912.02 471.58, 916.12 471.52 C 920.23 471.47, 922.01 472.41, 924.92 472.95 C 927.83 473.49, 928.73 473.99, 930.66 474.22 C 932.60 474.46, 933.56 474.71, 934.61 474.14 C 935.66 473.57, 936.25 472.58, 935.89 471.36"/><path d="M 1051.55,334.08 C 1050.67 335.24, 1050.53 336.43, 1049.94 340.19 C 1049.36 343.96, 1049.41 346.40, 1048.64 352.91 C 1047.86 359.41, 1047.42 363.68, 1046.09 372.74 C 1044.75 381.80, 1043.86 387.30, 1041.96 398.20 C 1040.05 409.09, 1038.75 415.36, 1036.56 427.23 C 1034.37 439.09, 1033.05 445.62, 1031.00 457.51 C 1028.95 469.39, 1027.88 475.58, 1026.32 486.66 C 1024.75 497.74, 1023.99 503.32, 1023.19 512.90 C 1022.39 522.48, 1022.14 526.98, 1022.32 534.58 C 1022.49 542.17, 1022.85 545.40, 1024.07 550.87 C 1025.29 556.33, 1026.02 558.59, 1028.43 561.91 C 1030.84 565.24, 1032.54 566.50, 1036.11 567.49 C 1039.68 568.49, 1041.94 568.15, 1046.30 566.89 C 1050.66 565.64, 1052.97 564.33, 1057.89 561.22 C 1062.81 558.12, 1065.42 555.93, 1070.89 551.38 C 1076.36 546.82, 1079.33 544.04, 1085.23 538.46 C 1091.14 532.88, 1094.42 529.66, 1100.43 523.48 C 1106.44 517.29, 1109.61 513.86, 1115.28 507.53 C 1120.94 501.21, 1123.82 497.87, 1128.76 491.86 C 1133.71 485.85, 1136.14 482.87, 1139.99 477.47 C 1143.83 472.08, 1145.48 469.48, 1147.98 464.89 C 1150.47 460.31, 1151.55 458.32, 1152.47 454.54 C 1153.39 450.75, 1153.56 448.86, 1152.57 445.97 C 1151.58 443.08, 1150.28 441.46, 1147.53 440.10 C 1144.77 438.74, 1142.64 438.42, 1138.81 439.17 C 1134.98 439.92, 1132.71 441.04, 1128.36 443.84 C 1124.02 446.63, 1121.48 448.56, 1117.07 453.14 C 1112.66 457.72, 1110.21 460.67, 1106.30 466.74 C 1102.39 472.80, 1100.30 476.51, 1097.52 483.45 C 1094.74 490.39, 1093.45 494.32, 1092.40 501.45 C 1091.35 508.57, 1091.29 512.43, 1092.28 519.06 C 1093.26 525.70, 1094.28 529.09, 1097.35 534.61 C 1100.41 540.13, 1102.52 542.76, 1107.59 546.66 C 1112.66 550.57, 1115.93 552.19, 1122.70 554.15 C 1129.46 556.10, 1133.47 556.53, 1141.42 556.44 C 1149.38 556.35, 1153.87 555.73, 1162.49 553.69 C 1171.11 551.65, 1176.43 549.47, 1184.51 546.24 C 1192.59 543.00, 1196.80 540.77, 1202.89 537.50 C 1208.99 534.23, 1212.86 531.86, 1214.98 529.87 C 1217.11 527.88, 1216.18 526.50, 1213.51 527.55 C 1210.84 528.60, 1207.62 531.90, 1201.62 535.13 C 1195.62 538.36, 1191.45 540.52, 1183.50 543.71 C 1175.55 546.90, 1170.30 549.11, 1161.88 551.10 C 1153.46 553.08, 1149.07 553.61, 1141.40 553.63 C 1133.74 553.66, 1129.92 553.13, 1123.55 551.23 C 1117.18 549.33, 1114.22 547.78, 1109.54 544.15 C 1104.86 540.51, 1102.97 538.17, 1100.13 533.06 C 1097.29 527.95, 1096.29 524.84, 1095.34 518.60 C 1094.40 512.37, 1094.40 508.69, 1095.41 501.89 C 1096.41 495.09, 1097.65 491.27, 1100.39 484.61 C 1103.12 477.95, 1105.21 474.33, 1109.10 468.59 C 1112.99 462.85, 1115.48 460.03, 1119.83 455.92 C 1124.18 451.80, 1126.82 450.20, 1130.85 448.01 C 1134.87 445.82, 1137.05 445.56, 1139.96 444.97 C 1142.87 444.38, 1143.82 444.53, 1145.39 445.04 C 1146.97 445.55, 1147.32 445.82, 1147.82 447.52 C 1148.32 449.21, 1148.54 450.38, 1147.91 453.52 C 1147.29 456.66, 1146.78 458.78, 1144.69 463.22 C 1142.60 467.66, 1141.07 470.35, 1137.46 475.73 C 1133.85 481.11, 1131.47 484.12, 1126.64 490.14 C 1121.81 496.15, 1118.95 499.50, 1113.33 505.79 C 1107.71 512.09, 1104.54 515.50, 1098.52 521.61 C 1092.51 527.72, 1089.21 530.90, 1083.25 536.33 C 1077.30 541.76, 1074.26 544.46, 1068.76 548.74 C 1063.27 553.02, 1060.53 554.99, 1055.78 557.73 C 1051.03 560.46, 1048.72 561.36, 1045.02 562.41 C 1041.31 563.46, 1039.93 563.56, 1037.25 562.97 C 1034.57 562.39, 1033.66 562.08, 1031.63 559.51 C 1029.61 556.93, 1028.51 555.11, 1027.15 550.11 C 1025.79 545.10, 1025.20 541.89, 1024.84 534.48 C 1024.47 527.08, 1024.63 522.57, 1025.31 513.06 C 1025.98 503.55, 1026.71 497.97, 1028.21 486.93 C 1029.72 475.88, 1030.78 469.69, 1032.83 457.82 C 1034.88 445.95, 1036.21 439.43, 1038.47 427.58 C 1040.73 415.74, 1042.06 409.47, 1044.14 398.59 C 1046.21 387.72, 1047.21 382.22, 1048.84 373.19 C 1050.47 364.16, 1051.16 359.92, 1052.30 353.44 C 1053.44 346.97, 1054.14 344.61, 1054.55 340.80 C 1054.95 336.99, 1054.93 335.74, 1054.33 334.39 C 1053.73 333.05, 1052.43 332.92, 1051.55 334.08"/><path d="M 1279.51,341.38 C 1278.78 342.59, 1278.80 343.73, 1278.70 347.31 C 1278.59 350.89, 1279.05 353.20, 1278.98 359.28 C 1278.92 365.36, 1278.88 369.33, 1278.38 377.71 C 1277.88 386.10, 1277.47 391.16, 1276.48 401.22 C 1275.49 411.29, 1274.71 417.14, 1273.42 428.05 C 1272.14 438.97, 1271.33 444.89, 1270.06 455.81 C 1268.80 466.73, 1268.12 472.46, 1267.11 482.64 C 1266.11 492.83, 1265.65 497.96, 1265.04 506.73 C 1264.43 515.51, 1264.19 519.87, 1264.08 526.51 C 1263.96 533.15, 1264.11 535.84, 1264.46 539.91 C 1264.80 543.98, 1265.14 545.50, 1265.80 546.85 C 1266.46 548.20, 1267.37 548.09, 1267.76 546.66 C 1268.15 545.23, 1267.90 543.74, 1267.74 539.71 C 1267.58 535.68, 1267.04 533.09, 1266.97 526.52 C 1266.90 519.95, 1266.94 515.61, 1267.39 506.88 C 1267.83 498.14, 1268.26 493.01, 1269.20 482.84 C 1270.14 472.68, 1270.82 466.95, 1272.08 456.04 C 1273.35 445.13, 1274.17 439.22, 1275.53 428.31 C 1276.89 417.40, 1277.71 411.55, 1278.88 401.48 C 1280.05 391.41, 1280.58 386.36, 1281.39 377.95 C 1282.21 369.54, 1282.51 365.58, 1282.96 359.45 C 1283.41 353.32, 1283.78 350.93, 1283.66 347.29 C 1283.53 343.65, 1283.15 342.44, 1282.32 341.26 C 1281.49 340.08, 1280.23 340.17, 1279.51 341.38"/><path d="M 1239.73,464.66 C 1241.08 465.25, 1242.45 465.15, 1246.03 464.75 C 1249.62 464.36, 1251.97 463.49, 1257.66 462.66 C 1263.35 461.83, 1267.07 461.29, 1274.50 460.61 C 1281.93 459.93, 1286.40 459.70, 1294.83 459.26 C 1303.27 458.82, 1308.61 458.70, 1316.67 458.42 C 1324.72 458.14, 1329.03 458.04, 1335.10 457.87 C 1341.18 457.69, 1344.66 458.13, 1347.04 457.55 C 1349.42 456.97, 1349.41 455.48, 1347.01 454.97 C 1344.61 454.45, 1341.12 454.86, 1335.04 454.97 C 1328.95 455.07, 1324.64 455.21, 1316.57 455.48 C 1308.50 455.76, 1303.16 455.98, 1294.70 456.33 C 1286.23 456.67, 1281.76 456.80, 1274.25 457.22 C 1266.74 457.63, 1262.96 457.92, 1257.17 458.42 C 1251.37 458.92, 1248.86 459.04, 1245.28 459.72 C 1241.70 460.39, 1240.38 460.81, 1239.27 461.80 C 1238.16 462.79, 1238.37 464.07, 1239.73 464.66"/><path d="M 1449.23,457.23 C 1448.71 455.89, 1447.76 454.49, 1445.28 453.31 C 1442.80 452.13, 1440.88 451.67, 1436.82 451.33 C 1432.76 450.99, 1430.08 450.80, 1424.97 451.62 C 1419.85 452.43, 1417.00 453.12, 1411.24 455.39 C 1405.48 457.66, 1402.18 459.21, 1396.17 462.96 C 1390.16 466.71, 1386.76 469.07, 1381.20 474.13 C 1375.64 479.20, 1372.78 482.35, 1368.37 488.27 C 1363.97 494.19, 1361.88 497.67, 1359.18 503.74 C 1356.48 509.81, 1355.47 513.06, 1354.89 518.60 C 1354.31 524.14, 1354.55 527.03, 1356.28 531.44 C 1358.00 535.84, 1359.69 538.09, 1363.52 540.61 C 1367.35 543.14, 1370.12 543.88, 1375.43 544.08 C 1380.74 544.28, 1383.87 543.65, 1390.07 541.63 C 1396.26 539.60, 1399.76 537.93, 1406.41 533.96 C 1413.07 529.99, 1416.71 527.18, 1423.33 521.76 C 1429.96 516.35, 1433.46 512.99, 1439.55 506.89 C 1445.65 500.78, 1448.70 497.19, 1453.80 491.23 C 1458.90 485.27, 1461.26 481.98, 1465.06 477.08 C 1468.86 472.18, 1470.90 469.74, 1472.80 466.73 C 1474.70 463.73, 1474.66 462.35, 1474.55 462.05 C 1474.45 461.76, 1473.01 462.23, 1472.27 465.26 C 1471.52 468.28, 1471.54 471.20, 1470.82 477.17 C 1470.10 483.13, 1469.50 487.51, 1468.65 495.07 C 1467.80 502.63, 1467.14 507.32, 1466.56 514.96 C 1465.97 522.61, 1465.46 526.94, 1465.73 533.30 C 1466.00 539.67, 1466.62 542.48, 1467.89 546.79 C 1469.17 551.11, 1470.29 552.78, 1472.10 554.88 C 1473.91 556.97, 1475.73 557.11, 1476.95 557.27 C 1478.17 557.43, 1478.47 556.67, 1478.19 555.67 C 1477.92 554.67, 1476.86 554.28, 1475.59 552.26 C 1474.31 550.24, 1473.09 549.39, 1471.80 545.56 C 1470.50 541.74, 1469.52 539.19, 1469.12 533.12 C 1468.72 527.05, 1469.16 522.74, 1469.79 515.22 C 1470.42 507.71, 1471.19 503.02, 1472.27 495.53 C 1473.35 488.05, 1474.20 483.76, 1475.20 477.80 C 1476.20 471.84, 1477.39 469.15, 1477.26 465.74 C 1477.13 462.32, 1476.15 461.04, 1474.57 460.73 C 1472.98 460.42, 1471.79 461.31, 1469.35 464.19 C 1466.91 467.06, 1465.91 470.06, 1462.38 475.10 C 1458.84 480.15, 1456.61 483.45, 1451.66 489.43 C 1446.72 495.41, 1443.68 498.98, 1437.67 505.01 C 1431.66 511.05, 1428.16 514.35, 1421.60 519.61 C 1415.03 524.87, 1411.38 527.58, 1404.86 531.30 C 1398.34 535.03, 1394.86 536.49, 1389.01 538.24 C 1383.15 539.99, 1380.24 540.29, 1375.61 540.07 C 1370.97 539.84, 1368.94 539.13, 1365.81 537.11 C 1362.68 535.09, 1361.44 533.60, 1359.97 529.97 C 1358.50 526.33, 1358.01 523.93, 1358.45 518.94 C 1358.88 513.96, 1359.66 510.80, 1362.13 505.03 C 1364.61 499.26, 1366.60 495.81, 1370.83 490.09 C 1375.06 484.37, 1377.86 481.29, 1383.28 476.43 C 1388.69 471.58, 1392.06 469.30, 1397.92 465.83 C 1403.78 462.35, 1407.06 460.91, 1412.58 459.04 C 1418.10 457.16, 1420.83 456.75, 1425.52 456.44 C 1430.21 456.12, 1432.52 456.83, 1436.03 457.46 C 1439.54 458.10, 1440.72 459.10, 1443.08 459.61 C 1445.45 460.12, 1446.63 460.48, 1447.85 460.00 C 1449.08 459.53, 1449.74 458.57, 1449.23 457.23"/><path d="M 1587.30,360.38 C 1588.58 360.59, 1589.48 360.21, 1591.99 359.08 C 1594.51 357.96, 1595.71 356.42, 1599.88 354.77 C 1604.04 353.11, 1606.95 351.92, 1612.82 350.83 C 1618.69 349.74, 1622.43 349.30, 1629.22 349.31 C 1636.02 349.31, 1640.03 349.56, 1646.80 350.85 C 1653.57 352.13, 1657.28 353.13, 1663.09 355.73 C 1668.89 358.33, 1671.69 360.07, 1675.83 363.85 C 1679.97 367.63, 1681.70 369.96, 1683.79 374.63 C 1685.88 379.29, 1686.48 381.92, 1686.28 387.17 C 1686.08 392.42, 1685.35 395.33, 1682.79 400.87 C 1680.22 406.41, 1678.02 409.54, 1673.45 414.89 C 1668.87 420.23, 1665.53 423.04, 1659.91 427.59 C 1654.28 432.14, 1650.68 434.25, 1645.32 437.66 C 1639.97 441.07, 1636.92 442.22, 1633.13 444.64 C 1629.35 447.06, 1627.61 447.63, 1626.39 449.76 C 1625.17 451.90, 1625.37 453.48, 1627.05 455.31 C 1628.73 457.14, 1630.59 457.58, 1634.77 458.92 C 1638.96 460.26, 1642.10 460.45, 1647.97 462.00 C 1653.85 463.55, 1657.58 464.34, 1664.16 466.67 C 1670.73 469.00, 1674.53 470.39, 1680.86 473.64 C 1687.19 476.90, 1690.59 478.84, 1695.79 482.93 C 1700.98 487.02, 1703.48 489.46, 1706.83 494.09 C 1710.17 498.73, 1711.43 501.33, 1712.51 506.11 C 1713.60 510.88, 1713.58 513.32, 1712.26 517.95 C 1710.95 522.58, 1709.66 524.94, 1705.95 529.27 C 1702.25 533.60, 1699.60 535.84, 1693.74 539.58 C 1687.87 543.32, 1684.08 545.13, 1676.64 547.96 C 1669.20 550.79, 1664.84 552.00, 1656.54 553.72 C 1648.24 555.44, 1643.56 555.99, 1635.16 556.54 C 1626.75 557.09, 1622.14 557.05, 1614.50 556.47 C 1606.86 555.89, 1603.09 555.27, 1596.95 553.63 C 1590.81 551.99, 1587.85 550.20, 1583.79 548.27 C 1579.73 546.33, 1578.83 545.28, 1576.67 543.97 C 1574.51 542.67, 1574.01 541.93, 1573.00 541.73 C 1572.00 541.53, 1571.41 541.83, 1571.63 542.98 C 1571.86 544.13, 1572.02 545.70, 1574.13 547.48 C 1576.24 549.26, 1577.77 550.04, 1582.18 551.88 C 1586.59 553.72, 1589.77 555.21, 1596.20 556.68 C 1602.62 558.14, 1606.48 558.71, 1614.31 559.20 C 1622.14 559.69, 1626.78 559.72, 1635.33 559.15 C 1643.88 558.57, 1648.61 558.02, 1657.07 556.31 C 1665.53 554.61, 1669.97 553.44, 1677.64 550.63 C 1685.31 547.82, 1689.23 546.08, 1695.42 542.26 C 1701.60 538.44, 1704.50 536.20, 1708.57 531.53 C 1712.63 526.87, 1714.26 524.18, 1715.74 518.93 C 1717.21 513.69, 1717.21 510.67, 1715.96 505.31 C 1714.72 499.95, 1713.17 497.10, 1709.53 492.13 C 1705.88 487.16, 1703.18 484.71, 1697.74 480.44 C 1692.30 476.18, 1688.80 474.24, 1682.33 470.82 C 1675.86 467.40, 1672.02 465.97, 1665.40 463.35 C 1658.78 460.74, 1655.05 459.66, 1649.23 457.75 C 1643.42 455.83, 1640.32 454.90, 1636.32 453.78 C 1632.33 452.66, 1630.72 452.47, 1629.27 452.13 C 1627.83 451.78, 1627.87 452.82, 1629.10 452.04 C 1630.33 451.27, 1631.81 450.55, 1635.43 448.25 C 1639.06 445.95, 1641.94 444.19, 1647.24 440.55 C 1652.53 436.91, 1656.19 434.77, 1661.92 430.05 C 1667.64 425.34, 1671.09 422.53, 1675.87 416.97 C 1680.66 411.42, 1683.05 408.22, 1685.82 402.29 C 1688.60 396.35, 1689.54 393.13, 1689.77 387.31 C 1690.00 381.49, 1689.31 378.38, 1686.97 373.20 C 1684.64 368.01, 1682.60 365.45, 1678.08 361.37 C 1673.57 357.29, 1670.53 355.53, 1664.40 352.79 C 1658.27 350.06, 1654.44 349.07, 1647.42 347.68 C 1640.39 346.28, 1636.32 346.01, 1629.27 345.82 C 1622.23 345.62, 1618.39 345.91, 1612.17 346.70 C 1605.95 347.49, 1602.82 348.42, 1598.17 349.79 C 1593.52 351.15, 1591.45 351.89, 1588.93 353.54 C 1586.42 355.19, 1585.93 356.67, 1585.61 358.04 C 1585.28 359.41, 1586.02 360.17, 1587.30 360.38"/><path d="M 1799.01,363.43 C 1800.28 364.33, 1801.84 364.57, 1805.63 364.98 C 1809.41 365.39, 1812.07 365.34, 1817.94 365.50 C 1823.80 365.65, 1827.74 365.59, 1834.96 365.78 C 1842.19 365.96, 1846.34 366.03, 1854.07 366.41 C 1861.80 366.79, 1866.07 366.92, 1873.62 367.66 C 1881.16 368.39, 1885.05 368.79, 1891.80 370.08 C 1898.55 371.37, 1901.85 372.18, 1907.37 374.12 C 1912.90 376.05, 1915.42 377.19, 1919.45 379.76 C 1923.49 382.32, 1925.07 383.75, 1927.54 386.94 C 1930.01 390.13, 1930.88 391.71, 1931.80 395.71 C 1932.72 399.70, 1932.81 401.79, 1932.15 406.91 C 1931.49 412.04, 1930.67 414.99, 1928.51 421.31 C 1926.34 427.64, 1924.78 431.27, 1921.31 438.54 C 1917.85 445.82, 1915.54 449.83, 1911.18 457.69 C 1906.82 465.54, 1904.19 469.80, 1899.51 477.83 C 1894.83 485.87, 1892.30 490.06, 1887.78 497.86 C 1883.27 505.65, 1880.97 509.59, 1876.94 516.80 C 1872.92 524.00, 1870.99 527.54, 1867.66 533.89 C 1864.32 540.23, 1862.72 543.26, 1860.27 548.54 C 1857.81 553.81, 1856.78 556.43, 1855.37 560.26 C 1853.96 564.09, 1853.20 566.03, 1853.21 567.69 C 1853.22 569.34, 1854.29 569.76, 1855.42 568.55 C 1856.55 567.34, 1857.28 565.38, 1858.87 561.65 C 1860.46 557.92, 1861.10 555.21, 1863.36 549.92 C 1865.62 544.62, 1867.01 541.55, 1870.17 535.17 C 1873.33 528.79, 1875.22 525.25, 1879.16 518.02 C 1883.10 510.80, 1885.38 506.86, 1889.87 499.06 C 1894.36 491.27, 1896.89 487.08, 1901.60 479.05 C 1906.32 471.03, 1908.97 466.80, 1913.43 458.95 C 1917.89 451.10, 1920.27 447.11, 1923.92 439.81 C 1927.56 432.51, 1929.26 428.92, 1931.67 422.45 C 1934.08 415.97, 1935.14 412.99, 1935.98 407.45 C 1936.82 401.92, 1936.92 399.39, 1935.88 394.78 C 1934.83 390.17, 1933.67 388.04, 1930.77 384.40 C 1927.88 380.76, 1925.88 379.27, 1921.41 376.59 C 1916.94 373.90, 1914.24 372.88, 1908.43 370.98 C 1902.62 369.09, 1899.26 368.36, 1892.35 367.11 C 1885.45 365.87, 1881.52 365.51, 1873.90 364.76 C 1866.28 364.01, 1862.00 363.87, 1854.24 363.37 C 1846.48 362.87, 1842.33 362.68, 1835.11 362.25 C 1827.89 361.83, 1823.98 361.68, 1818.15 361.24 C 1812.33 360.80, 1809.77 360.20, 1805.99 360.05 C 1802.21 359.90, 1800.65 359.82, 1799.26 360.49 C 1797.86 361.17, 1797.74 362.53, 1799.01 363.43"/><path d="M 1844.17,464.27 C 1846.05 464.91, 1848.50 464.48, 1853.52 464.43 C 1858.54 464.37, 1861.86 464.12, 1869.25 464.00 C 1876.63 463.88, 1881.51 463.83, 1890.44 463.81 C 1899.37 463.79, 1904.46 463.79, 1913.89 463.91 C 1923.32 464.02, 1928.99 464.09, 1937.59 464.38 C 1946.19 464.67, 1950.61 465.00, 1956.89 465.36 C 1963.18 465.72, 1965.43 466.05, 1969.02 466.17 C 1972.62 466.30, 1973.67 466.36, 1974.87 465.97 C 1976.08 465.58, 1976.19 464.86, 1975.07 464.21 C 1973.95 463.57, 1972.88 463.13, 1969.27 462.73 C 1965.66 462.34, 1963.35 462.44, 1957.03 462.24 C 1950.71 462.05, 1946.29 461.92, 1937.67 461.74 C 1929.04 461.57, 1923.37 461.51, 1913.93 461.36 C 1904.49 461.21, 1899.40 461.13, 1890.46 460.99 C 1881.52 460.85, 1876.64 460.74, 1869.24 460.67 C 1861.84 460.60, 1858.49 460.53, 1853.46 460.64 C 1848.43 460.75, 1845.96 460.48, 1844.10 461.20 C 1842.24 461.93, 1842.29 463.62, 1844.17 464.27"/></svg>