<svg xmlns="http://www.w3.org/2000/svg" id="canvas" viewBox="249.978 290.835 1113.249 314.373">
<style>
  path {
    stroke: #374151;
    fill: #374151;
  }
  @media (prefers-color-scheme: dark) {
    path {
      stroke: #e5e7eb;
      fill: #e5e7eb;
    }
  }
</style>
<path d="M 302.64,346.97 C 301.91 348.28, 301.92 349.83, 301.42 353.73 C 300.92 357.63, 301.12 360.15, 300.16 366.46 C 299.19 372.77, 298.53 376.98, 296.61 385.28 C 294.69 393.58, 293.36 398.48, 290.56 407.95 C 287.76 417.43, 285.94 422.80, 282.60 432.64 C 279.26 442.47, 277.21 447.88, 273.85 457.13 C 270.50 466.38, 268.69 471.22, 265.83 478.89 C 262.98 486.56, 261.62 490.26, 259.58 495.48 C 257.53 500.70, 256.33 502.75, 255.62 505.00 C 254.92 507.26, 255.79 507.77, 256.03 506.75 C 256.28 505.73, 256.55 504.30, 256.85 499.91 C 257.15 495.51, 257.01 492.06, 257.53 484.77 C 258.05 477.47, 258.35 472.67, 259.45 463.42 C 260.55 454.18, 261.22 448.79, 263.02 438.54 C 264.81 428.29, 265.91 422.69, 268.43 412.19 C 270.96 401.69, 272.40 396.20, 275.62 386.04 C 278.85 375.87, 280.65 370.69, 284.55 361.37 C 288.46 352.05, 290.65 347.43, 295.15 339.43 C 299.65 331.43, 302.11 327.66, 307.04 321.38 C 311.97 315.09, 314.66 312.31, 319.78 308.02 C 324.90 303.72, 327.61 302.11, 332.64 299.91 C 337.68 297.71, 340.25 297.23, 344.95 297.02 C 349.66 296.81, 352.01 297.34, 356.18 298.86 C 360.35 300.39, 362.45 301.73, 365.79 304.65 C 369.13 307.57, 370.75 309.51, 372.87 313.46 C 374.99 317.41, 375.94 319.69, 376.39 324.39 C 376.85 329.09, 376.79 331.69, 375.13 336.96 C 373.48 342.22, 372.05 345.17, 368.13 350.72 C 364.21 356.28, 361.42 359.28, 355.56 364.74 C 349.69 370.20, 345.89 373.05, 338.81 378.03 C 331.73 383.00, 327.48 385.45, 320.14 389.61 C 312.80 393.76, 308.68 395.68, 302.11 398.82 C 295.54 401.96, 292.26 403.24, 287.30 405.29 C 282.34 407.34, 280.07 407.50, 277.31 409.05 C 274.55 410.60, 273.94 411.39, 273.49 413.04 C 273.05 414.70, 273.52 415.68, 275.08 417.32 C 276.64 418.96, 278.14 419.47, 281.30 421.24 C 284.46 423.01, 286.77 423.69, 290.87 426.16 C 294.97 428.63, 297.44 430.13, 301.79 433.60 C 306.13 437.07, 308.45 439.19, 312.61 443.53 C 316.76 447.87, 318.83 450.41, 322.57 455.30 C 326.32 460.18, 328.04 462.92, 331.33 467.95 C 334.61 472.99, 336.04 475.72, 339.00 480.48 C 341.96 485.24, 343.24 487.71, 346.14 491.74 C 349.04 495.78, 350.37 497.73, 353.49 500.66 C 356.60 503.59, 358.16 504.91, 361.73 506.39 C 365.29 507.88, 367.29 508.29, 371.31 508.07 C 375.34 507.86, 377.55 507.23, 381.85 505.33 C 386.16 503.44, 388.33 502.01, 392.85 498.60 C 397.37 495.20, 399.81 492.96, 404.46 488.30 C 409.10 483.64, 411.67 480.72, 416.07 475.28 C 420.46 469.84, 422.71 466.68, 426.43 461.10 C 430.15 455.51, 432.01 452.48, 434.67 447.35 C 437.33 442.23, 438.45 439.77, 439.73 435.47 C 441.01 431.18, 441.54 429.14, 441.08 425.88 C 440.62 422.62, 439.66 420.97, 437.42 419.16 C 435.19 417.34, 433.30 416.53, 429.92 416.80 C 426.54 417.07, 424.45 418.03, 420.53 420.50 C 416.61 422.97, 414.42 424.89, 410.33 429.15 C 406.25 433.40, 403.88 436.29, 400.11 441.78 C 396.35 447.27, 394.29 450.62, 391.51 456.62 C 388.72 462.62, 387.35 465.99, 386.18 471.78 C 385.01 477.57, 384.77 480.62, 385.66 485.57 C 386.55 490.53, 387.59 493.00, 390.66 496.55 C 393.72 500.11, 396.03 501.61, 401.00 503.36 C 405.96 505.11, 409.09 505.45, 415.47 505.30 C 421.85 505.15, 425.52 504.43, 432.89 502.60 C 440.27 500.76, 444.42 499.29, 452.34 496.12 C 460.26 492.95, 464.62 490.82, 472.50 486.75 C 480.37 482.69, 484.43 480.18, 491.71 475.79 C 499.00 471.41, 502.68 468.93, 508.93 464.82 C 515.18 460.71, 518.18 458.57, 522.97 455.25 C 527.77 451.92, 529.88 450.57, 532.90 448.19 C 535.92 445.80, 537.03 444.99, 538.05 443.31 C 539.08 441.64, 538.81 440.79, 538.02 439.81 C 537.23 438.82, 536.09 438.32, 534.11 438.38 C 532.13 438.44, 530.61 438.66, 528.12 440.10 C 525.63 441.55, 524.42 443.06, 521.66 445.61 C 518.90 448.17, 517.29 449.65, 514.33 452.86 C 511.37 456.07, 509.69 457.94, 506.86 461.67 C 504.02 465.40, 502.50 467.49, 500.17 471.50 C 497.84 475.51, 496.64 477.70, 495.20 481.73 C 493.76 485.75, 493.12 487.85, 492.98 491.62 C 492.83 495.38, 493.00 497.40, 494.48 500.54 C 495.97 503.68, 497.30 505.30, 500.40 507.32 C 503.49 509.35, 505.60 510.01, 509.94 510.66 C 514.28 511.32, 516.83 511.23, 522.11 510.58 C 527.39 509.93, 530.38 509.20, 536.35 507.40 C 542.32 505.61, 545.63 504.32, 551.96 501.61 C 558.30 498.91, 561.71 497.16, 568.02 493.89 C 574.33 490.61, 577.60 488.72, 583.50 485.23 C 589.39 481.74, 592.37 479.77, 597.49 476.44 C 602.61 473.10, 605.04 471.32, 609.09 468.55 C 613.14 465.79, 614.99 464.67, 617.73 462.60 C 620.47 460.53, 621.52 459.74, 622.78 458.21 C 624.04 456.68, 624.16 456.00, 624.04 454.94 C 623.92 453.88, 623.32 453.33, 622.18 452.91 C 621.04 452.49, 619.98 452.30, 618.33 452.84 C 616.68 453.39, 615.73 454.07, 613.92 455.63 C 612.12 457.19, 611.16 458.29, 609.30 460.66 C 607.44 463.03, 606.48 464.53, 604.63 467.49 C 602.79 470.45, 601.67 472.14, 600.07 475.46 C 598.47 478.78, 597.57 480.67, 596.64 484.08 C 595.70 487.50, 595.19 489.38, 595.40 492.54 C 595.61 495.70, 596.12 497.40, 597.69 499.90 C 599.26 502.40, 600.53 503.67, 603.26 505.04 C 605.98 506.40, 607.87 506.80, 611.31 506.74 C 614.75 506.67, 616.76 506.08, 620.47 504.72 C 624.18 503.36, 626.26 502.29, 629.86 499.92 C 633.46 497.55, 635.36 496.01, 638.47 492.88 C 641.58 489.74, 643.16 487.86, 645.41 484.25 C 647.65 480.64, 648.58 478.56, 649.69 474.82 C 650.81 471.07, 651.05 469.04, 650.99 465.53 C 650.93 462.02, 650.51 460.16, 649.38 457.25 C 648.25 454.34, 647.14 453.03, 645.35 450.98 C 643.55 448.93, 642.34 447.98, 640.40 447.00 C 638.45 446.02, 637.07 445.76, 635.61 446.10 C 634.14 446.44, 633.23 447.44, 633.06 448.70 C 632.90 449.95, 633.15 451.23, 634.77 452.38 C 636.40 453.53, 637.80 454.22, 641.18 454.45 C 644.56 454.67, 646.81 454.25, 651.66 453.51 C 656.50 452.77, 659.35 452.33, 665.40 450.75 C 671.46 449.17, 674.96 448.18, 681.95 445.61 C 688.94 443.04, 692.92 441.43, 700.37 437.91 C 707.82 434.39, 711.81 432.32, 719.19 428.01 C 726.57 423.69, 730.49 421.21, 737.27 416.33 C 744.04 411.46, 747.47 408.70, 753.05 403.64 C 758.64 398.58, 761.17 395.84, 765.18 391.02 C 769.20 386.20, 770.89 383.81, 773.13 379.56 C 775.38 375.31, 776.26 373.24, 776.41 369.79 C 776.56 366.34, 775.85 364.49, 773.89 362.32 C 771.94 360.16, 770.12 359.11, 766.63 358.96 C 763.14 358.82, 760.93 359.52, 756.45 361.59 C 751.96 363.66, 749.51 365.22, 744.21 369.31 C 738.90 373.41, 735.82 376.10, 729.93 382.07 C 724.05 388.05, 720.61 391.77, 714.77 399.18 C 708.93 406.59, 705.79 410.95, 700.74 419.12 C 695.69 427.29, 693.18 431.85, 689.51 440.03 C 685.85 448.22, 684.21 452.56, 682.42 460.02 C 680.63 467.49, 680.22 471.17, 680.57 477.35 C 680.92 483.53, 681.69 486.42, 684.19 490.91 C 686.69 495.40, 688.67 497.31, 693.08 499.82 C 697.48 502.33, 700.45 503.00, 706.23 503.45 C 712.02 503.89, 715.44 503.47, 722.00 502.06 C 728.57 500.65, 732.25 499.30, 739.05 496.38 C 745.84 493.47, 749.61 491.42, 755.99 487.49 C 762.37 483.57, 765.69 481.09, 770.94 476.76 C 776.19 472.43, 778.66 469.96, 782.23 465.85 C 785.81 461.73, 787.39 459.71, 788.81 456.19 C 790.23 452.67, 790.27 450.77, 789.33 448.26 C 788.39 445.75, 786.89 444.43, 784.11 443.65 C 781.33 442.87, 779.10 443.08, 775.44 444.37 C 771.77 445.67, 769.60 447.15, 765.79 450.12 C 761.97 453.10, 759.76 455.20, 756.36 459.26 C 752.97 463.32, 751.17 465.84, 748.81 470.42 C 746.44 475.01, 745.24 477.65, 744.53 482.18 C 743.82 486.71, 743.78 489.30, 745.27 493.07 C 746.76 496.84, 748.31 498.81, 751.99 501.03 C 755.66 503.24, 758.19 503.91, 763.64 504.14 C 769.08 504.37, 772.37 503.95, 779.21 502.18 C 786.04 500.41, 789.97 498.94, 797.82 495.27 C 805.67 491.60, 810.05 489.17, 818.44 483.83 C 826.84 478.50, 831.32 475.22, 839.79 468.60 C 848.26 461.97, 852.71 458.10, 860.80 450.70 C 868.90 443.29, 872.99 439.13, 880.29 431.57 C 887.59 424.00, 891.17 419.94, 897.31 412.88 C 903.44 405.81, 906.29 402.18, 910.95 396.26 C 915.61 390.33, 917.57 387.50, 920.62 383.25 C 923.67 378.99, 925.18 377.42, 926.19 374.98 C 927.20 372.54, 926.65 371.41, 925.67 371.05 C 924.69 370.69, 923.15 370.83, 921.27 373.18 C 919.39 375.53, 918.76 377.91, 916.27 382.80 C 913.78 387.69, 912.18 390.97, 908.82 397.60 C 905.46 404.23, 903.38 408.29, 899.46 415.95 C 895.54 423.62, 893.25 428.00, 889.22 435.92 C 885.20 443.85, 883.00 448.10, 879.32 455.56 C 875.64 463.03, 873.86 466.82, 870.83 473.24 C 867.80 479.67, 866.42 482.76, 864.15 487.69 C 861.87 492.62, 860.68 494.65, 859.45 497.88 C 858.22 501.11, 858.25 502.16, 857.99 503.84 C 857.73 505.52, 857.91 505.73, 858.15 506.29 C 858.38 506.85, 858.66 506.94, 859.19 506.64 C 859.72 506.34, 859.99 506.25, 860.79 504.78 C 861.59 503.32, 861.97 502.49, 863.19 499.31 C 864.40 496.12, 864.89 493.86, 866.86 488.85 C 868.82 483.84, 870.14 480.71, 873.02 474.25 C 875.91 467.78, 877.66 463.99, 881.28 456.52 C 884.91 449.06, 887.10 444.81, 891.16 436.91 C 895.22 429.02, 897.52 424.64, 901.57 417.06 C 905.63 409.47, 907.79 405.46, 911.43 399.00 C 915.07 392.54, 916.95 389.39, 919.77 384.75 C 922.58 380.11, 924.30 378.45, 925.51 375.79 C 926.72 373.14, 926.33 372.00, 925.82 371.47 C 925.31 370.95, 924.49 371.13, 922.97 373.16 C 921.45 375.19, 920.97 377.27, 918.21 381.63 C 915.46 385.98, 913.67 388.92, 909.20 394.92 C 904.74 400.93, 901.92 404.57, 895.89 411.66 C 889.86 418.75, 886.29 422.82, 879.05 430.37 C 871.80 437.93, 867.73 442.08, 859.66 449.44 C 851.59 456.81, 847.16 460.65, 838.70 467.20 C 830.25 473.74, 825.77 476.97, 817.40 482.17 C 809.03 487.37, 804.64 489.72, 796.87 493.18 C 789.09 496.64, 785.15 497.95, 778.54 499.47 C 771.93 500.98, 768.74 501.11, 763.83 500.77 C 758.91 500.43, 756.95 499.58, 753.98 497.75 C 751.01 495.93, 750.11 494.63, 748.98 491.63 C 747.86 488.64, 747.73 486.68, 748.36 482.79 C 749.00 478.90, 749.97 476.36, 752.17 472.17 C 754.37 467.98, 756.10 465.52, 759.36 461.83 C 762.62 458.15, 764.91 456.26, 768.48 453.75 C 772.06 451.23, 774.26 450.40, 777.23 449.25 C 780.20 448.11, 781.57 447.99, 783.33 448.02 C 785.09 448.05, 785.65 448.06, 786.03 449.39 C 786.41 450.73, 786.45 451.81, 785.21 454.70 C 783.98 457.59, 783.04 459.85, 779.84 463.85 C 776.63 467.84, 774.24 470.40, 769.20 474.69 C 764.17 478.99, 760.88 481.46, 754.64 485.31 C 748.40 489.16, 744.66 491.16, 738.02 493.95 C 731.37 496.74, 727.72 497.98, 721.42 499.26 C 715.11 500.54, 711.84 500.80, 706.48 500.37 C 701.11 499.94, 698.55 499.28, 694.59 497.11 C 690.64 494.93, 689.00 493.47, 686.70 489.49 C 684.40 485.51, 683.52 482.98, 683.09 477.19 C 682.67 471.39, 682.92 467.79, 684.58 460.53 C 686.23 453.26, 687.79 448.93, 691.36 440.86 C 694.93 432.78, 697.41 428.24, 702.43 420.17 C 707.44 412.10, 710.59 407.77, 716.43 400.50 C 722.28 393.23, 725.74 389.56, 731.66 383.82 C 737.58 378.07, 740.76 375.50, 746.03 371.78 C 751.30 368.07, 753.91 366.85, 758.01 365.25 C 762.12 363.64, 763.95 363.81, 766.55 363.76 C 769.15 363.72, 769.87 363.85, 771.01 365.01 C 772.16 366.17, 772.44 366.95, 772.28 369.57 C 772.11 372.19, 772.03 374.14, 770.19 378.10 C 768.35 382.05, 766.85 384.57, 763.10 389.33 C 759.36 394.10, 756.89 396.87, 751.47 401.91 C 746.04 406.96, 742.65 409.71, 735.98 414.55 C 729.30 419.39, 725.41 421.86, 718.09 426.10 C 710.76 430.35, 706.78 432.38, 699.37 435.77 C 691.97 439.17, 688.00 440.72, 681.05 443.08 C 674.11 445.43, 670.62 446.35, 664.66 447.54 C 658.71 448.74, 655.85 448.98, 651.27 449.06 C 646.70 449.13, 644.73 448.28, 641.78 447.92 C 638.84 447.56, 638.01 447.18, 636.54 447.26 C 635.07 447.34, 634.78 447.74, 634.43 448.33 C 634.09 448.92, 634.22 449.46, 634.81 450.20 C 635.40 450.94, 636.15 451.10, 637.39 452.03 C 638.63 452.95, 639.67 453.35, 641.01 454.83 C 642.35 456.31, 643.12 457.25, 644.09 459.43 C 645.06 461.62, 645.65 462.93, 645.87 465.76 C 646.09 468.58, 646.04 470.32, 645.19 473.55 C 644.34 476.78, 643.60 478.68, 641.62 481.92 C 639.65 485.15, 638.19 486.92, 635.33 489.72 C 632.47 492.52, 630.65 493.92, 627.34 495.94 C 624.03 497.95, 622.01 498.78, 618.78 499.78 C 615.56 500.77, 613.84 500.87, 611.20 500.92 C 608.56 500.97, 607.41 500.77, 605.59 500.02 C 603.78 499.27, 603.02 498.74, 602.13 497.19 C 601.24 495.65, 601.16 494.63, 601.14 492.30 C 601.11 489.97, 601.24 488.42, 602.02 485.55 C 602.80 482.68, 603.54 480.87, 605.05 477.95 C 606.57 475.02, 607.66 473.42, 609.59 470.91 C 611.52 468.41, 612.79 467.31, 614.69 465.42 C 616.60 463.52, 617.62 462.83, 619.12 461.43 C 620.63 460.03, 621.39 459.59, 622.20 458.41 C 623.02 457.24, 623.17 456.44, 623.21 455.56 C 623.25 454.68, 623.08 454.11, 622.41 454.01 C 621.74 453.92, 621.33 454.04, 619.85 455.08 C 618.37 456.11, 617.56 457.03, 615.00 459.18 C 612.45 461.33, 610.92 462.85, 607.10 465.82 C 603.27 468.79, 600.88 470.62, 595.89 474.04 C 590.89 477.46, 587.95 479.43, 582.13 482.93 C 576.31 486.43, 573.05 488.31, 566.80 491.52 C 560.55 494.74, 557.14 496.44, 550.87 499.01 C 544.61 501.57, 541.30 502.77, 535.48 504.35 C 529.65 505.93, 526.69 506.48, 521.73 506.89 C 516.76 507.30, 514.40 507.10, 510.66 506.39 C 506.93 505.68, 505.40 504.91, 503.04 503.33 C 500.68 501.74, 499.97 500.78, 498.88 498.47 C 497.79 496.16, 497.51 494.83, 497.58 491.76 C 497.66 488.70, 498.02 486.78, 499.25 483.14 C 500.48 479.50, 501.55 477.34, 503.74 473.57 C 505.93 469.80, 507.40 467.75, 510.19 464.28 C 512.98 460.80, 514.66 459.01, 517.69 456.19 C 520.71 453.37, 522.42 452.13, 525.31 450.20 C 528.19 448.26, 529.96 447.95, 532.10 446.52 C 534.24 445.10, 534.97 444.23, 536.00 443.07 C 537.03 441.92, 537.34 441.16, 537.25 440.75 C 537.16 440.34, 536.90 440.12, 535.56 441.02 C 534.21 441.92, 533.37 442.87, 530.52 445.26 C 527.67 447.66, 525.90 449.46, 521.32 452.98 C 516.74 456.50, 513.77 458.67, 507.62 462.86 C 501.48 467.06, 497.81 469.55, 490.59 473.95 C 483.37 478.34, 479.33 480.83, 471.51 484.84 C 463.70 488.85, 459.34 490.93, 451.50 493.99 C 443.65 497.04, 439.51 498.42, 432.29 500.09 C 425.08 501.77, 421.47 502.31, 415.43 502.35 C 409.39 502.39, 406.54 501.88, 402.09 500.28 C 397.64 498.69, 395.84 497.42, 393.18 494.37 C 390.53 491.31, 389.62 489.40, 388.81 485.00 C 388.00 480.60, 388.06 477.79, 389.14 472.37 C 390.21 466.94, 391.47 463.62, 394.17 457.86 C 396.88 452.10, 398.93 448.80, 402.67 443.57 C 406.41 438.33, 408.86 435.56, 412.89 431.70 C 416.91 427.84, 419.26 426.23, 422.78 424.27 C 426.30 422.30, 428.06 422.26, 430.49 421.88 C 432.92 421.49, 433.68 421.43, 434.92 422.34 C 436.15 423.26, 436.41 424.00, 436.68 426.44 C 436.94 428.88, 437.19 430.62, 436.24 434.53 C 435.30 438.43, 434.37 440.98, 431.94 445.98 C 429.51 450.99, 427.70 454.04, 424.09 459.55 C 420.48 465.06, 418.24 468.19, 413.89 473.51 C 409.54 478.83, 406.95 481.68, 402.33 486.15 C 397.72 490.61, 395.22 492.72, 390.82 495.83 C 386.42 498.95, 384.27 500.12, 380.32 501.73 C 376.38 503.33, 374.50 503.69, 371.10 503.85 C 367.70 504.01, 366.31 503.74, 363.31 502.54 C 360.30 501.33, 358.96 500.40, 356.08 497.83 C 353.20 495.26, 351.79 493.51, 348.91 489.70 C 346.02 485.90, 344.66 483.48, 341.64 478.80 C 338.62 474.12, 337.15 471.38, 333.81 466.32 C 330.47 461.26, 328.72 458.49, 324.93 453.50 C 321.15 448.51, 319.06 445.91, 314.88 441.39 C 310.71 436.86, 308.37 434.68, 304.06 430.89 C 299.75 427.10, 297.35 425.36, 293.34 422.44 C 289.34 419.53, 287.21 418.05, 284.03 416.31 C 280.84 414.56, 279.16 414.23, 277.41 413.72 C 275.65 413.22, 274.92 414.00, 275.26 413.79 C 275.60 413.57, 276.46 413.81, 279.11 412.66 C 281.76 411.50, 283.70 410.34, 288.52 408.01 C 293.33 405.68, 296.63 404.29, 303.18 400.99 C 309.72 397.70, 313.86 395.76, 321.24 391.53 C 328.62 387.30, 332.89 384.85, 340.08 379.85 C 347.27 374.84, 351.13 372.01, 357.18 366.50 C 363.22 360.98, 366.14 358.00, 370.31 352.28 C 374.48 346.56, 376.13 343.53, 378.02 337.89 C 379.91 332.26, 380.15 329.33, 379.76 324.11 C 379.36 318.88, 378.36 316.21, 376.04 311.78 C 373.72 307.35, 371.89 305.17, 368.14 301.94 C 364.40 298.72, 361.99 297.25, 357.31 295.65 C 352.64 294.05, 349.93 293.59, 344.78 293.95 C 339.62 294.30, 336.83 294.98, 331.53 297.44 C 326.23 299.90, 323.48 301.70, 318.26 306.23 C 313.03 310.77, 310.36 313.66, 305.41 320.12 C 300.47 326.57, 298.02 330.41, 293.53 338.53 C 289.04 346.65, 286.85 351.31, 282.95 360.71 C 279.05 370.11, 277.25 375.31, 274.01 385.53 C 270.77 395.74, 269.33 401.25, 266.75 411.79 C 264.18 422.32, 263.07 427.94, 261.15 438.20 C 259.24 448.47, 258.52 453.87, 257.19 463.12 C 255.85 472.38, 255.30 477.15, 254.46 484.48 C 253.62 491.81, 253.02 495.18, 252.98 499.76 C 252.95 504.34, 253.19 506.04, 254.29 507.38 C 255.39 508.72, 256.91 508.66, 258.48 506.47 C 260.06 504.28, 260.29 501.80, 262.16 496.43 C 264.03 491.06, 265.14 487.34, 267.83 479.61 C 270.53 471.88, 272.32 467.05, 275.63 457.77 C 278.93 448.50, 280.99 443.08, 284.36 433.24 C 287.74 423.39, 289.58 418.02, 292.51 408.55 C 295.44 399.07, 296.87 394.18, 299.02 385.87 C 301.17 377.56, 302.03 373.35, 303.27 367.00 C 304.51 360.65, 304.87 358.11, 305.23 354.14 C 305.58 350.17, 305.58 348.59, 305.06 347.15 C 304.54 345.72, 303.36 345.65, 302.64 346.97"/>
<path d="M 841.60,483.09 C 842.36 483.82, 843.07 484.34, 845.33 484.45 C 847.60 484.56, 849.04 484.22, 852.93 483.64 C 856.82 483.07, 859.36 482.55, 864.78 481.60 C 870.19 480.65, 873.50 480.10, 880.00 478.89 C 886.50 477.67, 890.16 476.94, 897.28 475.52 C 904.40 474.09, 908.30 473.26, 915.59 471.76 C 922.87 470.25, 926.75 469.43, 933.71 467.98 C 940.67 466.53, 944.25 465.74, 950.41 464.50 C 956.57 463.26, 959.61 462.67, 964.51 461.78 C 969.42 460.90, 971.81 460.95, 974.92 460.10 C 978.02 459.24, 979.15 458.62, 980.04 457.51 C 980.94 456.40, 980.67 455.39, 979.38 454.55 C 978.10 453.72, 976.59 452.90, 973.62 453.32 C 970.66 453.74, 968.63 454.85, 964.56 456.66 C 960.49 458.46, 957.96 459.66, 953.28 462.36 C 948.61 465.07, 945.83 466.77, 941.20 470.17 C 936.57 473.57, 934.03 475.64, 930.14 479.37 C 926.25 483.11, 924.31 485.17, 921.75 488.85 C 919.18 492.53, 917.89 494.46, 917.32 497.77 C 916.75 501.08, 917.25 502.98, 918.88 505.40 C 920.50 507.82, 922.12 509.07, 925.44 509.89 C 928.75 510.70, 931.04 510.38, 935.45 509.47 C 939.87 508.55, 942.44 507.54, 947.51 505.29 C 952.59 503.04, 955.50 501.46, 960.83 498.22 C 966.17 494.98, 969.14 492.85, 974.20 489.11 C 979.27 485.36, 982.25 482.79, 986.14 479.47 C 990.03 476.15, 992.14 474.54, 993.66 472.51 C 995.17 470.48, 994.63 469.34, 993.72 469.32 C 992.81 469.30, 991.07 470.02, 989.12 472.40 C 987.16 474.78, 985.74 477.34, 983.92 481.24 C 982.10 485.13, 980.81 487.80, 980.00 491.87 C 979.19 495.95, 978.81 498.30, 979.86 501.60 C 980.90 504.90, 982.13 506.66, 985.22 508.37 C 988.31 510.08, 990.54 510.30, 995.31 510.15 C 1000.08 509.99, 1003.03 509.35, 1009.07 507.57 C 1015.11 505.79, 1018.55 504.31, 1025.51 501.24 C 1032.46 498.18, 1036.45 496.20, 1043.84 492.24 C 1051.23 488.27, 1055.31 485.90, 1062.46 481.44 C 1069.61 476.99, 1073.26 474.40, 1079.59 469.96 C 1085.91 465.52, 1088.96 463.19, 1094.08 459.23 C 1099.21 455.28, 1101.45 453.35, 1105.21 450.19 C 1108.98 447.04, 1110.53 445.73, 1112.90 443.45 C 1115.28 441.18, 1115.93 440.26, 1117.11 438.82 C 1118.28 437.38, 1118.38 436.81, 1118.77 436.24 C 1119.17 435.67, 1118.87 435.65, 1119.07 435.97 C 1119.28 436.29, 1119.08 436.89, 1119.80 437.84 C 1120.52 438.79, 1121.09 439.45, 1122.67 440.72 C 1124.25 442.00, 1125.37 442.73, 1127.69 444.20 C 1130.02 445.67, 1131.66 446.27, 1134.29 448.05 C 1136.92 449.83, 1138.47 450.95, 1140.84 453.09 C 1143.21 455.22, 1144.59 456.43, 1146.15 458.71 C 1147.70 461.00, 1148.32 462.04, 1148.63 464.53 C 1148.94 467.01, 1148.92 468.25, 1147.71 471.13 C 1146.50 474.01, 1145.43 475.69, 1142.58 478.93 C 1139.72 482.17, 1137.56 484.02, 1133.42 487.33 C 1129.28 490.63, 1126.71 492.43, 1121.88 495.44 C 1117.05 498.44, 1114.20 499.87, 1109.27 502.34 C 1104.35 504.81, 1101.57 505.84, 1097.27 507.80 C 1092.98 509.77, 1090.77 510.32, 1087.81 512.18 C 1084.86 514.03, 1083.71 514.92, 1082.50 517.07 C 1081.29 519.22, 1081.21 520.52, 1081.77 522.93 C 1082.32 525.34, 1083.16 526.78, 1085.27 529.12 C 1087.37 531.46, 1089.29 532.35, 1092.29 534.64 C 1095.29 536.93, 1097.23 538.10, 1100.27 540.56 C 1103.32 543.02, 1105.10 544.41, 1107.53 546.94 C 1109.96 549.47, 1111.07 550.89, 1112.43 553.22 C 1113.78 555.55, 1114.25 556.55, 1114.30 558.59 C 1114.35 560.64, 1114.09 561.40, 1112.66 563.43 C 1111.24 565.46, 1110.18 566.66, 1107.18 568.75 C 1104.17 570.83, 1102.10 572.03, 1097.63 573.87 C 1093.17 575.71, 1090.30 576.61, 1084.84 577.95 C 1079.38 579.29, 1076.11 579.85, 1070.32 580.58 C 1064.53 581.30, 1061.37 581.51, 1055.89 581.56 C 1050.40 581.60, 1047.52 581.37, 1042.88 580.80 C 1038.24 580.22, 1036.01 579.65, 1032.70 578.69 C 1029.39 577.73, 1028.10 576.90, 1026.34 576.00 C 1024.57 575.10, 1024.01 574.84, 1023.88 574.21 C 1023.75 573.57, 1024.11 573.64, 1025.67 572.81 C 1027.22 571.97, 1028.33 571.33, 1031.66 570.05 C 1034.98 568.77, 1037.24 567.90, 1042.30 566.41 C 1047.36 564.91, 1050.48 564.19, 1056.93 562.57 C 1063.38 560.94, 1067.09 560.13, 1074.55 558.27 C 1082.01 556.41, 1086.14 555.47, 1094.22 553.28 C 1102.31 551.10, 1106.62 549.94, 1114.98 547.34 C 1123.33 544.74, 1127.75 543.36, 1136.00 540.30 C 1144.24 537.25, 1148.46 535.59, 1156.22 532.06 C 1163.97 528.54, 1167.80 526.58, 1174.77 522.68 C 1181.73 518.77, 1184.99 516.65, 1191.05 512.54 C 1197.10 508.44, 1199.89 506.26, 1205.02 502.16 C 1210.16 498.05, 1212.52 495.90, 1216.71 492.03 C 1220.91 488.15, 1222.69 486.19, 1226.01 482.79 C 1229.33 479.39, 1230.70 477.75, 1233.31 475.03 C 1235.93 472.31, 1237.05 471.15, 1239.08 469.18 C 1241.12 467.22, 1241.74 466.41, 1243.48 465.21 C 1245.22 464.01, 1245.88 463.72, 1247.80 463.20 C 1249.71 462.69, 1250.70 462.79, 1253.06 462.64 C 1255.43 462.50, 1256.70 462.57, 1259.62 462.50 C 1262.53 462.44, 1264.20 462.32, 1267.65 462.31 C 1271.10 462.30, 1273.01 462.39, 1276.86 462.46 C 1280.71 462.52, 1282.82 462.57, 1286.89 462.63 C 1290.95 462.70, 1293.15 462.72, 1297.18 462.80 C 1301.21 462.87, 1303.32 462.85, 1307.02 463.01 C 1310.72 463.18, 1312.61 463.31, 1315.67 463.61 C 1318.74 463.90, 1320.19 464.16, 1322.36 464.49 C 1324.53 464.81, 1325.44 464.83, 1326.52 465.24 C 1327.59 465.65, 1327.79 465.69, 1327.75 466.55 C 1327.70 467.42, 1327.22 467.71, 1326.28 469.55 C 1325.34 471.38, 1324.89 472.66, 1323.05 475.74 C 1321.21 478.82, 1320.02 480.78, 1317.08 484.93 C 1314.13 489.09, 1312.22 491.49, 1308.32 496.51 C 1304.41 501.54, 1302.09 504.34, 1297.57 510.07 C 1293.05 515.79, 1290.50 518.96, 1285.71 525.13 C 1280.92 531.30, 1278.31 534.65, 1273.62 540.91 C 1268.93 547.18, 1266.47 550.48, 1262.26 556.47 C 1258.05 562.46, 1256.01 565.52, 1252.56 570.87 C 1249.11 576.22, 1247.53 578.80, 1245.01 583.21 C 1242.48 587.62, 1241.30 589.76, 1239.93 592.91 C 1238.56 596.06, 1238.40 597.19, 1238.16 598.96 C 1237.92 600.74, 1238.47 601.17, 1238.75 601.78 C 1239.04 602.39, 1239.41 601.98, 1239.59 602.02 C 1239.77 602.05, 1239.50 601.93, 1239.65 601.94 C 1239.80 601.95, 1239.88 602.44, 1240.35 602.07 C 1240.81 601.70, 1241.26 601.57, 1241.97 600.07 C 1242.69 598.57, 1242.74 597.62, 1243.92 594.55 C 1245.10 591.48, 1245.69 589.19, 1247.87 584.74 C 1250.06 580.29, 1251.57 577.67, 1254.84 572.30 C 1258.12 566.93, 1260.13 563.86, 1264.26 557.86 C 1268.40 551.87, 1270.85 548.58, 1275.52 542.33 C 1280.19 536.09, 1282.80 532.75, 1287.63 526.64 C 1292.46 520.52, 1295.03 517.38, 1299.66 511.75 C 1304.29 506.12, 1306.65 503.37, 1310.77 498.50 C 1314.88 493.62, 1316.89 491.34, 1320.23 487.38 C 1323.57 483.42, 1325.18 481.82, 1327.48 478.70 C 1329.78 475.58, 1330.85 474.37, 1331.73 471.79 C 1332.61 469.22, 1332.44 467.88, 1331.87 465.82 C 1331.30 463.76, 1330.58 462.86, 1328.90 461.51 C 1327.22 460.16, 1326.04 459.72, 1323.47 459.07 C 1320.91 458.42, 1319.33 458.44, 1316.06 458.27 C 1312.79 458.11, 1310.89 458.25, 1307.13 458.24 C 1303.36 458.23, 1301.27 458.28, 1297.25 458.23 C 1293.23 458.19, 1291.05 458.15, 1287.01 458.01 C 1282.97 457.87, 1280.89 457.75, 1277.05 457.52 C 1273.22 457.28, 1271.32 457.07, 1267.83 456.83 C 1264.34 456.60, 1262.67 456.38, 1259.60 456.33 C 1256.53 456.28, 1255.17 456.24, 1252.47 456.59 C 1249.78 456.94, 1248.50 457.20, 1246.12 458.10 C 1243.74 459.00, 1242.71 459.56, 1240.58 461.08 C 1238.46 462.60, 1237.56 463.44, 1235.49 465.69 C 1233.43 467.94, 1232.64 469.37, 1230.24 472.32 C 1227.85 475.28, 1226.63 476.96, 1223.52 480.48 C 1220.41 483.99, 1218.73 485.98, 1214.71 489.91 C 1210.68 493.85, 1208.39 496.02, 1203.40 500.16 C 1198.40 504.31, 1195.67 506.50, 1189.73 510.62 C 1183.78 514.74, 1180.57 516.87, 1173.70 520.78 C 1166.82 524.69, 1163.03 526.64, 1155.35 530.16 C 1147.67 533.68, 1143.48 535.33, 1135.28 538.36 C 1127.08 541.39, 1122.68 542.77, 1114.35 545.32 C 1106.03 547.86, 1101.72 549.00, 1093.64 551.10 C 1085.56 553.19, 1081.44 554.10, 1073.96 555.80 C 1066.49 557.50, 1062.78 558.25, 1056.25 559.61 C 1049.73 560.97, 1046.61 561.50, 1041.34 562.61 C 1036.07 563.73, 1033.65 563.91, 1029.90 565.19 C 1026.16 566.46, 1024.46 567.10, 1022.61 568.99 C 1020.76 570.88, 1020.40 572.46, 1020.65 574.64 C 1020.90 576.82, 1021.66 578.23, 1023.85 579.88 C 1026.04 581.52, 1027.86 581.98, 1031.60 582.88 C 1035.33 583.78, 1037.65 583.98, 1042.52 584.37 C 1047.38 584.76, 1050.29 584.94, 1055.93 584.83 C 1061.57 584.71, 1064.77 584.49, 1070.71 583.79 C 1076.65 583.10, 1079.96 582.58, 1085.63 581.34 C 1091.30 580.10, 1094.25 579.33, 1099.07 577.58 C 1103.89 575.84, 1106.15 574.88, 1109.73 572.64 C 1113.31 570.40, 1115.05 569.21, 1116.96 566.39 C 1118.88 563.58, 1119.29 561.70, 1119.30 558.55 C 1119.30 555.41, 1118.62 553.69, 1116.98 550.67 C 1115.35 547.66, 1113.81 546.29, 1111.12 543.49 C 1108.44 540.69, 1106.59 539.32, 1103.54 536.66 C 1100.50 534.01, 1098.65 532.62, 1095.88 530.22 C 1093.10 527.82, 1091.72 526.43, 1089.68 524.67 C 1087.64 522.91, 1086.48 522.52, 1085.68 521.42 C 1084.87 520.32, 1084.77 520.22, 1085.67 519.15 C 1086.58 518.07, 1087.55 517.64, 1090.19 516.05 C 1092.84 514.45, 1094.80 513.31, 1098.92 511.18 C 1103.04 509.04, 1105.86 507.92, 1110.81 505.35 C 1115.76 502.78, 1118.68 501.35, 1123.66 498.33 C 1128.63 495.30, 1131.28 493.56, 1135.68 490.24 C 1140.08 486.93, 1142.39 485.20, 1145.66 481.76 C 1148.92 478.31, 1150.39 476.57, 1152.02 473.03 C 1153.64 469.49, 1154.03 467.49, 1153.78 464.04 C 1153.52 460.59, 1152.56 458.81, 1150.76 455.79 C 1148.96 452.78, 1147.31 451.50, 1144.78 448.95 C 1142.25 446.41, 1140.66 445.27, 1138.10 443.07 C 1135.54 440.88, 1134.25 439.66, 1131.98 437.97 C 1129.71 436.27, 1128.60 435.62, 1126.76 434.60 C 1124.92 433.59, 1124.23 433.26, 1122.76 432.90 C 1121.29 432.54, 1120.60 432.62, 1119.39 432.80 C 1118.19 432.98, 1117.82 433.14, 1116.75 433.78 C 1115.67 434.42, 1115.40 434.65, 1114.02 435.99 C 1112.65 437.33, 1112.06 438.11, 1109.88 440.47 C 1107.69 442.84, 1106.57 444.48, 1103.09 447.82 C 1099.61 451.17, 1097.43 453.14, 1092.46 457.19 C 1087.49 461.24, 1084.48 463.60, 1078.24 468.07 C 1072.00 472.53, 1068.37 475.11, 1061.27 479.53 C 1054.17 483.95, 1050.10 486.30, 1042.74 490.15 C 1035.38 494.00, 1031.36 495.92, 1024.46 498.77 C 1017.55 501.63, 1014.04 502.94, 1008.20 504.42 C 1002.36 505.90, 999.41 506.18, 995.24 506.18 C 991.08 506.18, 989.53 505.58, 987.39 504.41 C 985.25 503.25, 984.99 502.60, 984.55 500.34 C 984.11 498.08, 984.25 496.42, 985.19 493.11 C 986.14 489.81, 987.52 487.39, 989.29 483.82 C 991.06 480.25, 992.94 478.12, 994.04 475.27 C 995.13 472.42, 995.37 470.73, 994.74 469.58 C 994.12 468.43, 993.11 468.11, 990.90 469.53 C 988.68 470.95, 987.39 473.26, 983.67 476.67 C 979.94 480.07, 977.18 482.79, 972.28 486.54 C 967.38 490.29, 964.41 492.36, 959.17 495.42 C 953.93 498.48, 950.97 499.91, 946.06 501.83 C 941.16 503.74, 938.55 504.41, 934.64 505.02 C 930.72 505.62, 928.96 505.26, 926.48 504.86 C 924.00 504.47, 923.17 504.30, 922.24 503.06 C 921.30 501.82, 921.27 501.06, 921.83 498.66 C 922.38 496.26, 922.86 494.40, 925.02 491.05 C 927.18 487.70, 928.96 485.52, 932.61 481.92 C 936.26 478.31, 938.76 476.24, 943.27 473.04 C 947.78 469.83, 950.54 468.17, 955.17 465.89 C 959.80 463.61, 962.43 462.84, 966.42 461.63 C 970.42 460.43, 972.54 460.76, 975.15 459.87 C 977.77 458.99, 978.68 458.13, 979.48 457.22 C 980.29 456.30, 980.31 455.62, 979.18 455.30 C 978.05 454.98, 976.91 454.99, 973.84 455.63 C 970.76 456.28, 968.61 457.29, 963.80 458.52 C 959.00 459.75, 955.95 460.39, 949.82 461.79 C 943.70 463.18, 940.13 463.99, 933.18 465.49 C 926.23 466.99, 922.36 467.81, 915.08 469.29 C 907.80 470.77, 903.89 471.58, 896.78 472.89 C 889.66 474.20, 885.99 474.88, 879.49 475.84 C 872.98 476.81, 869.68 477.19, 864.25 477.71 C 858.82 478.24, 856.21 478.14, 852.34 478.45 C 848.47 478.75, 847.07 478.76, 844.90 479.23 C 842.74 479.71, 842.19 480.04, 841.53 480.81 C 840.87 481.58, 840.84 482.37, 841.60 483.09"/>
<path d="M 1221.18,553.14 C 1222.14 553.79, 1222.92 554.26, 1225.74 554.16 C 1228.56 554.06, 1230.38 553.23, 1235.27 552.63 C 1240.17 552.04, 1243.49 551.77, 1250.21 551.21 C 1256.93 550.64, 1261.09 550.34, 1268.89 549.81 C 1276.69 549.27, 1281.11 548.98, 1289.20 548.53 C 1297.30 548.09, 1301.64 547.87, 1309.38 547.59 C 1317.11 547.30, 1321.04 547.21, 1327.87 547.11 C 1334.69 547.02, 1338.27 547.05, 1343.50 547.09 C 1348.73 547.14, 1350.84 547.46, 1354.02 547.33 C 1357.20 547.20, 1358.32 546.95, 1359.41 546.45 C 1360.49 545.95, 1360.50 545.37, 1359.43 544.84 C 1358.36 544.32, 1357.24 544.00, 1354.04 543.82 C 1350.85 543.65, 1348.72 543.82, 1343.47 543.97 C 1338.22 544.11, 1334.64 544.28, 1327.80 544.54 C 1320.96 544.79, 1317.03 544.91, 1309.28 545.24 C 1301.54 545.56, 1297.19 545.78, 1289.08 546.17 C 1280.97 546.56, 1276.55 546.83, 1268.74 547.20 C 1260.93 547.56, 1256.78 547.74, 1250.02 547.99 C 1243.26 548.24, 1239.90 548.26, 1234.94 548.45 C 1229.97 548.64, 1227.99 548.46, 1225.19 548.96 C 1222.39 549.45, 1221.75 550.06, 1220.94 550.90 C 1220.14 551.74, 1220.22 552.48, 1221.18 553.14"/>
</svg>